<svg xmlns="http://www.w3.org/2000/svg" xmlns:xlink="http://www.w3.org/1999/xlink" width="1040" height="1086" viewBox="0 0 1040 1086">
  <defs>
    <clipPath id="clip-path">
      <rect id="Прямоугольник_174" data-name="Прямоугольник 174" width="884" height="645" transform="translate(1740 404)" fill="#fff" stroke="#707070" stroke-width="1"/>
    </clipPath>
  </defs>
  <g id="Сгруппировать_99" data-name="Сгруппировать 99" transform="translate(-1680 -404)">
    <g id="Группа_масок_2" data-name="Группа масок 2" clip-path="url(#clip-path)">
      <g id="Сгруппировать_98" data-name="Сгруппировать 98" transform="translate(-881 798)">
        <g id="Сгруппировать_97" data-name="Сгруппировать 97" transform="matrix(0.259, -0.966, 0.966, 0.259, 1748.416, 2698.816)">
          <g id="Сгруппировать_90" data-name="Сгруппировать 90" transform="translate(-46 21)">
            <rect id="Прямоугольник_164" data-name="Прямоугольник 164" width="980" height="452" rx="30" transform="translate(2309.5 243)" fill="#a8e83a"/>
            <rect id="Прямоугольник_165" data-name="Прямоугольник 165" width="980" height="452" rx="30" transform="translate(2309.5 243)" fill="none" stroke="#3a5112" stroke-width="40"/>
          </g>
          <g id="Сгруппировать_91" data-name="Сгруппировать 91" transform="translate(167 693)">
            <path id="Пересечение_31" data-name="Пересечение 31" d="M765.8,332H93.407L0,238.594V94.2L94.2,0H766.593L860,93.407V237.8Z" transform="translate(2156.5 -369)" fill="#7d0"/>
            <path id="Пересечение_32" data-name="Пересечение 32" d="M765.8,332H93.407L0,238.594V94.2L94.2,0H766.593L860,93.407V237.8Z" transform="translate(2156.5 -369)" fill="none" stroke="#3a5112" stroke-linejoin="bevel" stroke-width="40"/>
          </g>
          <g id="Сгруппировать_92" data-name="Сгруппировать 92" transform="translate(146 81)">
            <circle id="Эллипс_32" data-name="Эллипс 32" cx="106" cy="106" r="106" transform="translate(2501.5 303)" fill="#a8e83a" stroke="#000" stroke-width="40"/>
            <circle id="Эллипс_33" data-name="Эллипс 33" cx="106" cy="106" r="106" transform="translate(2501.5 303)" fill="none" stroke="#3a5112" stroke-width="40"/>
          </g>
        </g>
        <g id="Сгруппировать_96" data-name="Сгруппировать 96" transform="translate(640.877 1766.497) rotate(-45)">
          <g id="Сгруппировать_90-2" data-name="Сгруппировать 90" transform="translate(-46 21)">
            <rect id="Прямоугольник_164-2" data-name="Прямоугольник 164" width="980" height="452" rx="30" transform="translate(2309.5 243)" fill="#a8e83a"/>
            <rect id="Прямоугольник_165-2" data-name="Прямоугольник 165" width="980" height="452" rx="30" transform="translate(2309.5 243)" fill="none" stroke="#3a5112" stroke-width="40"/>
          </g>
          <g id="Сгруппировать_91-2" data-name="Сгруппировать 91" transform="translate(167 693)">
            <path id="Пересечение_31-2" data-name="Пересечение 31" d="M765.8,332H93.407L0,238.594V94.2L94.2,0H766.593L860,93.407V237.8Z" transform="translate(2156.5 -369)" fill="#7d0"/>
            <path id="Пересечение_32-2" data-name="Пересечение 32" d="M765.8,332H93.407L0,238.594V94.2L94.2,0H766.593L860,93.407V237.8Z" transform="translate(2156.5 -369)" fill="none" stroke="#3a5112" stroke-linejoin="bevel" stroke-width="40"/>
          </g>
          <g id="Сгруппировать_92-2" data-name="Сгруппировать 92" transform="translate(146 81)">
            <circle id="Эллипс_32-2" data-name="Эллипс 32" cx="106" cy="106" r="106" transform="translate(2501.5 303)" fill="#a8e83a" stroke="#000" stroke-width="40"/>
            <circle id="Эллипс_33-2" data-name="Эллипс 33" cx="106" cy="106" r="106" transform="translate(2501.5 303)" fill="none" stroke="#3a5112" stroke-width="40"/>
          </g>
        </g>
        <g id="Сгруппировать_93" data-name="Сгруппировать 93" transform="matrix(0.966, -0.259, 0.259, 0.966, 147.88, 405.315)">
          <g id="Сгруппировать_90-3" data-name="Сгруппировать 90" transform="translate(-46 21)">
            <rect id="Прямоугольник_164-3" data-name="Прямоугольник 164" width="980" height="452" rx="30" transform="translate(2309.5 243)" fill="#a8e83a"/>
            <rect id="Прямоугольник_165-3" data-name="Прямоугольник 165" width="980" height="452" rx="30" transform="translate(2309.5 243)" fill="none" stroke="#3a5112" stroke-width="40"/>
          </g>
          <g id="Сгруппировать_91-3" data-name="Сгруппировать 91" transform="translate(167 693)">
            <path id="Пересечение_31-3" data-name="Пересечение 31" d="M765.8,332H93.407L0,238.594V94.2L94.2,0H766.593L860,93.407V237.8Z" transform="translate(2156.5 -369)" fill="#7d0"/>
            <path id="Пересечение_32-3" data-name="Пересечение 32" d="M765.8,332H93.407L0,238.594V94.2L94.2,0H766.593L860,93.407V237.8Z" transform="translate(2156.5 -369)" fill="none" stroke="#3a5112" stroke-linejoin="bevel" stroke-width="40"/>
          </g>
          <g id="Сгруппировать_92-3" data-name="Сгруппировать 92" transform="translate(146 81)">
            <circle id="Эллипс_32-3" data-name="Эллипс 32" cx="106" cy="106" r="106" transform="translate(2501.5 303)" fill="#a8e83a" stroke="#000" stroke-width="40"/>
            <circle id="Эллипс_33-3" data-name="Эллипс 33" cx="106" cy="106" r="106" transform="translate(2501.5 303)" fill="none" stroke="#3a5112" stroke-width="40"/>
          </g>
        </g>
      </g>
    </g>
    <g id="Сгруппировать_95" data-name="Сгруппировать 95">
      <g id="Сгруппировать_94" data-name="Сгруппировать 94">
        <path id="Прямоугольник_1" data-name="Прямоугольник 1" d="M60,0H840A120,120,0,0,1,960,120V580A120,120,0,0,1,840,700H60A60,60,0,0,1,0,640V60A60,60,0,0,1,60,0Z" transform="translate(1700 770)" fill="#3f51b5" stroke="#1a2250" stroke-linejoin="round" stroke-width="40"/>
        <g id="Сгруппировать_1" data-name="Сгруппировать 1" transform="translate(2250 960.071)">
          <path id="Прямоугольник_2" data-name="Прямоугольник 2" d="M120,0H390a60,60,0,0,1,60,60V260a60,60,0,0,1-60,60H120A120,120,0,0,1,0,200V120A120,120,0,0,1,120,0Z" transform="translate(0 -0.071)" fill="#b5a33f" stroke="#1a2250" stroke-linejoin="round" stroke-width="40"/>
          <circle id="Эллипс_1" data-name="Эллипс 1" cx="79.5" cy="79.5" r="79.5" transform="translate(80 80.929)" fill="#3f51b5" stroke="#1a2250" stroke-width="40"/>
        </g>
      </g>
      <line id="Линия_1" data-name="Линия 1" x2="959" transform="translate(1700 1346.5)" fill="none" stroke="#1a2250" stroke-width="40"/>
      <line id="Линия_2" data-name="Линия 2" x2="959" transform="translate(1700 890)" fill="none" stroke="#1a2250" stroke-width="40"/>
    </g>
  </g>
</svg>
